Coordinates
version=1
nRows=17
nColumns=33
inDegrees=yes

Units are S.I. units (second, meters, Newtons, ...)
Angles are in degrees.

endheader
time	ground_thorax_rot_x	ground_thorax_rot_y	ground_thorax_rot_z	ground_thorax_tx	ground_thorax_ty	ground_thorax_tz	clav_prot_r	clav_elev_r	scapula_abduction_r	scapula_elevation_r	scapula_upward_rot_r	scapula_winging_r	shoulder_elv_r	plane_of_elev_r	axial_rot_r	elbow_flexion_r	pro_sup_r	wrist_flex_r	wrist_dev_r	clav_prot_l	clav_elev_l	scapula_abduction_l	scapula_elevation_l	scapula_upward_rot_l	scapula_winging_l	shoulder_elv_l	plane_of_elev_l	axial_rot_l	elbow_flexion_l	pro_sup_l	wrist_flex_l	wrist_dev_l
      6.76000000	     38.42920207	      4.75426552	      8.46528166	   -114.28753510	    808.94028326	      2.35868204	     15.86171973	     42.65096215	     45.00000000	     45.00000000	    -27.82510968	    275.89710203	  -3709.37811648	    145.77218659	   -163.13652131	   1451.76776089	     21.91626951	     18.80678202	     10.24650786	      7.41559814	    -45.00000000	    -45.00000000	     45.00000000	    -14.17799413	   1531.83720376	  -1175.05792866	    134.14769724	   -160.62602391	   -355.32785688	   -327.79708576	     10.31195418	    -22.25002021
      6.77000000	     38.35025637	      4.74819686	      8.61858562	   -119.17194021	    810.52536258	      2.19236375	     14.94712015	     42.26262316	     45.00000000	     45.00000000	    -27.85188127	    275.29373906	  -3709.47625181	    145.79327735	   -162.66104746	   1451.74205759	     21.84342401	     19.03817108	      9.94486999	      7.05189968	    -45.00000000	    -45.00000000	     45.00000000	    -13.65836421	   1532.34516390	  -1175.08785272	    134.55062707	   -161.26769778	   -355.28739785	   -328.48066784	     10.18238398	    -22.46456805
      6.78000000	     38.24979271	      4.98719057	      9.08507189	   -124.12794697	    812.08047984	      2.00899848	     16.14330783	     42.50919469	     45.00000000	     45.00000000	    -29.02569333	    275.18946700	  -3708.93735880	    145.99408451	   -161.44724676	   1452.12783332	     21.86158865	     19.01771530	      9.71120691	      7.86869522	    -45.00000000	    -45.00000000	     45.00000000	    -15.34154134	   1532.89507610	  -1174.67411340	    134.43152091	   -162.47384070	   -354.84354996	   -329.45536190	     10.15630270	    -22.45110169
      6.79000000	     38.12927606	      5.14284331	      9.46367009	   -129.12621294	    813.59145626	      1.80947069	     16.33571789	     42.27342317	     45.00000000	     45.00000000	    -29.82999671	    274.84503790	  -3708.77952426	    145.98696252	   -160.98416027	   1452.22803105	     21.92958620	     19.08649859	      9.43401105	      8.14895399	    -45.00000000	    -45.00000000	     45.00000000	    -16.20043924	   1533.38832957	  -1174.40898280	    134.60173143	   -163.23689087	   -354.69911640	   -330.33462643	     10.15298254	    -22.52054987
      6.80000000	     37.92913097	      5.77213645	     10.30939111	   -134.14744636	    815.04202710	      1.59499659	     16.87528010	     41.88982541	     45.00000000	     45.00000000	    -31.16859404	    274.32347284	  -3708.75234508	    145.87912225	   -160.23872643	   1452.16202658	     22.21570534	     19.02597464	      8.97133865	      8.62333502	    -45.00000000	    -45.00000000	     45.00000000	    -17.29266376	   1534.03564925	  -1174.26371208	    134.77863235	   -164.41216108	   -354.61213407	   -331.33022989	     10.06077023	    -22.51690237
      6.81000000	     37.80996615	      6.14725818	     10.86681768	   -139.14873991	    816.42365708	      1.37039208	     16.94623132	     41.61651394	     45.00000000	     45.00000000	    -32.27707656	    273.92755132	  -3708.59405573	    145.91497461	   -159.70195239	   1452.26493392	     22.72367165	     19.11149804	      8.68522695	      8.87035240	    -45.00000000	    -45.00000000	     45.00000000	    -18.20530679	   1534.62858678	  -1174.17036942	    134.95804278	   -165.46784796	   -354.49265505	   -332.26910424	      9.96439317	    -22.55590950
      6.82000000	     37.80697329	      6.04000491	     10.90387736	   -144.13646587	    817.72043483	      1.13611337	     16.72669194	     41.55288754	     45.00000000	     45.00000000	    -32.64891464	    273.68515732	  -3708.31434090	    146.12941542	   -158.49676858	   1452.53137980	     23.49689320	     19.31362949	      8.65635651	      8.98186487	    -45.00000000	    -45.00000000	     45.00000000	    -18.62685758	   1535.00946085	  -1174.08216840	    135.17405853	   -165.85593373	   -354.40983384	   -332.94260034	      9.98187900	    -22.61926273
      6.83000000	     37.49367941	      7.05551376	     12.06885092	   -149.10214164	    818.92102800	      0.89459303	     16.89832613	     41.04775916	     44.72464749	     45.00000000	    -34.62708050	    273.35190011	  -3708.20696392	    146.00129171	   -158.29955438	   1452.59753664	     24.55133825	     19.19800494	      7.93881052	      9.56132358	    -45.00000000	    -45.00000000	     45.00000000	    -20.54456581	   1535.81363485	  -1173.87345078	    135.16334035	   -167.32744762	   -354.29567929	   -333.75998990	      9.83637024	    -22.64486051
      6.84000000	     37.41109602	      6.95768466	     12.01824800	   -154.08124586	    820.01575505	      0.64525912	     16.46917742	     41.08811377	     44.13322173	     45.00000000	    -34.28810907	    273.44108717	  -3708.02952250	    146.14400979	   -156.77043163	   1452.65322678	     25.80138693	     19.44217526	      8.14162121	      9.53365413	    -45.00000000	    -44.79862688	     45.00000000	    -20.74939772	   1535.89940302	  -1173.66926374	    135.50624446	   -167.33594587	   -354.44087645	   -334.33383754	      9.82337102	    -22.62329367
      6.85000000	     37.23837940	      7.87866437	     13.21640796	   -159.03696668	    821.00337981	      0.39431416	     16.62674353	     40.56101861	     44.05478270	     45.00000000	    -36.83359573	    273.15272492	  -3707.60123123	    145.94491240	   -157.33597057	   1452.82844482	     27.66580671	     19.28078961	      7.32717374	      9.78028414	    -45.00000000	    -44.03189939	     45.00000000	    -23.60577318	   1536.31502278	  -1173.48890201	    135.38371335	   -169.31107353	   -354.17050068	   -335.16331467	      9.57226056	    -22.65397642
      6.86000000	     37.17768773	      8.01474583	     13.46701147	   -163.97262454	    821.87794056	      0.14424520	     16.60189229	     40.34670981	     43.81799518	     45.00000000	    -37.37125503	    273.00631102	  -3707.47876115	    146.02316878	   -156.53878196	   1453.02022779	     29.86303033	     19.27979710	      6.98373202	      9.84516376	    -45.00000000	    -43.70703243	     45.00000000	    -24.67845855	   1536.57401737	  -1173.31219182	    135.44935527	   -169.74762273	   -354.24430204	   -335.81932969	      9.63062023	    -22.65811562
      6.87000000	     37.08947084	      8.24669861	     13.76046027	   -168.83638605	    822.64242094	     -0.09764669	     16.53446960	     40.15166327	     43.50777262	     45.00000000	    -38.46784140	    273.00967145	  -3707.07341943	    145.99075140	   -156.36577486	   1453.27184015	     32.62984965	     19.31283642	      6.66022446	      9.84764897	    -45.00000000	    -43.14571079	     45.00000000	    -26.20116217	   1536.67388141	  -1173.05805146	    135.52784012	   -170.55336098	   -354.17802739	   -336.38696146	      9.47372495	    -22.65898074
      6.88000000	     37.08946961	      8.09091867	     13.55984174	   -173.59431346	    823.29737223	     -0.32606544	     16.72319046	     39.95545927	     43.40310664	     45.00000000	    -38.23884818	    272.60683207	  -3707.34530702	    146.01636488	   -154.13266082	   1453.44072750	     34.91299556	     19.20135064	      6.31848146	     10.00044931	    -45.00000000	    -43.24978630	     45.00000000	    -26.44231077	   1537.10304452	  -1173.01278252	    135.58094714	   -170.34630130	   -354.18945414	   -336.61828254	      9.79617270	    -22.74016131
      6.89000000	     36.98837224	      8.41900995	     14.04606246	   -178.19208369	    823.85101327	     -0.53464709	     16.43527588	     39.65503540	     43.06605735	     45.00000000	    -40.11752782	    272.90139113	  -3706.63902640	    145.95803710	   -155.46343930	   1453.74974081	     38.66871245	     19.51232101	      6.35348506	      9.90308556	    -45.00000000	    -42.35574252	     45.00000000	    -28.57236814	   1536.88079250	  -1172.68890293	    135.83141577	   -171.54680719	   -354.05949602	   -336.87934137	      9.22937287	    -22.68051094
      6.90000000	     36.98220205	      8.53323996	     14.11390256	   -182.62473986	    824.29986350	     -0.72277684	     16.68123378	     39.47645509	     43.00229192	     45.00000000	    -40.05420415	    272.40801353	  -3707.02535087	    146.09437511	   -152.66661098	   1454.10955602	     41.15282846	     19.09845005	      5.64844929	     10.13685646	    -45.00000000	    -42.53167592	     45.00000000	    -28.90069149	   1537.54189378	  -1172.89156643	    135.74823891	   -171.50550407	   -354.20165949	   -336.79045064	      9.66925227	    -22.83803505
      6.91000000	     36.87082641	      8.88596693	     14.64697819	   -186.88939053	    824.65034629	     -0.89136824	     16.46900326	     39.29532106	     42.64141671	     45.00000000	    -41.83502777	    272.72542302	  -3706.39133071	    146.07169852	   -153.54768922	   1454.50586954	     45.03855311	     19.27695385	      5.55016122	     10.13233762	    -45.00000000	    -41.59097413	     45.00000000	    -31.18693981	   1537.34092506	  -1172.48166136	    135.88489890	   -172.40845738	   -354.04054169	   -336.60781552	      9.11144475	    -22.84580271
      6.92000000	     36.81764849	      9.04576604	     14.81490908	   -190.96872302	    824.90321859	     -1.04084600	     16.42889986	     39.10811655	     42.39592725	     45.00000000	    -42.64055972	    272.70576829	  -3706.30070126	    146.06032545	   -152.85923018	   1454.90222689	     49.28944726	     19.29767881	      5.30088133	     10.13796317	    -45.00000000	    -41.26853307	     45.00000000	    -32.38841537	   1537.49282014	  -1172.39059063	    135.97830665	   -172.77431707	   -354.02349720	   -336.28347677	      8.94306619	    -22.89278834
